<?xml version="1.0" encoding="utf-8" standalone="no"?>
<!DOCTYPE svg PUBLIC "-//W3C//DTD SVG 1.1//EN"
  "http://www.w3.org/Graphics/SVG/1.1/DTD/svg11.dtd">
<svg height="366.831563pt" version="1.1" viewBox="0 0 394.160937 366.831563" width="394.160937pt" xmlns="http://www.w3.org/2000/svg" xmlns:xlink="http://www.w3.org/1999/xlink">
 <metadata>
  <rdf:RDF xmlns:cc="http://creativecommons.org/ns#" xmlns:dc="http://purl.org/dc/elements/1.1/" xmlns:rdf="http://www.w3.org/1999/02/22-rdf-syntax-ns#">
   <cc:Work>
    <dc:type rdf:resource="http://purl.org/dc/dcmitype/StillImage"/>
    <dc:date>2021-10-28T15:43:47.228799</dc:date>
    <dc:format>image/svg+xml</dc:format>
    <dc:creator>
     <cc:Agent>
      <dc:title>Matplotlib v3.4.3, https://matplotlib.org/</dc:title>
     </cc:Agent>
    </dc:creator>
   </cc:Work>
  </rdf:RDF>
 </metadata>
 <defs>
  <style type="text/css">*{stroke-linecap:butt;stroke-linejoin:round;}</style>
 </defs>
 <g id="figure_1">
  <g id="patch_1">
   <path d="M 0 366.831563 
L 394.160937 366.831563 
L 394.160937 0 
L 0 0 
z
" style="fill:none;"/>
  </g>
  <g id="axes_1">
   <g id="patch_2">
    <path d="M 52.160938 239.758125 
L 386.960938 239.758125 
L 386.960938 22.318125 
L 52.160938 22.318125 
z
" style="fill:#ffffff;"/>
   </g>
   <g id="patch_3">
    <path clip-path="url(#pec0ce7d13f)" d="M 67.379119 158.382088 
L 82.789936 158.382088 
L 82.789936 32.201761 
L 67.379119 32.201761 
z
" style="fill:#1f77b4;"/>
   </g>
   <g id="patch_4">
    <path clip-path="url(#pec0ce7d13f)" d="M 86.642641 158.382088 
L 102.053458 158.382088 
L 102.053458 156.044456 
L 86.642641 156.044456 
z
" style="fill:#1f77b4;"/>
   </g>
   <g id="patch_5">
    <path clip-path="url(#pec0ce7d13f)" d="M 105.906162 158.382088 
L 121.316979 158.382088 
L 121.316979 147.429086 
L 105.906162 147.429086 
z
" style="fill:#1f77b4;"/>
   </g>
   <g id="patch_6">
    <path clip-path="url(#pec0ce7d13f)" d="M 125.169683 158.382088 
L 140.5805 158.382088 
L 140.5805 124.338538 
L 125.169683 124.338538 
z
" style="fill:#1f77b4;"/>
   </g>
   <g id="patch_7">
    <path clip-path="url(#pec0ce7d13f)" d="M 144.433204 158.382088 
L 159.844022 158.382088 
L 159.844022 229.874489 
L 144.433204 229.874489 
z
" style="fill:#ff0000;stroke:#ff0000;stroke-linejoin:miter;"/>
   </g>
   <g id="patch_8">
    <path clip-path="url(#pec0ce7d13f)" d="M 163.696726 158.382088 
L 179.107543 158.382088 
L 179.107543 178.875914 
L 163.696726 178.875914 
z
" style="fill:#ff0000;stroke:#ff0000;stroke-linejoin:miter;"/>
   </g>
   <g id="patch_9">
    <path clip-path="url(#pec0ce7d13f)" d="M 182.960247 158.382088 
L 198.371064 158.382088 
L 198.371064 173.493108 
L 182.960247 173.493108 
z
" style="fill:#ff0000;stroke:#ff0000;stroke-linejoin:miter;"/>
   </g>
   <g id="patch_10">
    <path clip-path="url(#pec0ce7d13f)" d="M 202.223768 158.382088 
L 217.634585 158.382088 
L 217.634585 210.284486 
L 202.223768 210.284486 
z
" style="fill:#ff0000;stroke:#ff0000;stroke-linejoin:miter;"/>
   </g>
   <g id="patch_11">
    <path clip-path="url(#pec0ce7d13f)" d="M 221.48729 158.382088 
L 236.898107 158.382088 
L 236.898107 152.071683 
L 221.48729 152.071683 
z
" style="fill:#1f77b4;"/>
   </g>
   <g id="patch_12">
    <path clip-path="url(#pec0ce7d13f)" d="M 240.750811 158.382088 
L 256.161628 158.382088 
L 256.161628 128.184745 
L 240.750811 128.184745 
z
" style="fill:#1f77b4;"/>
   </g>
   <g id="patch_13">
    <path clip-path="url(#pec0ce7d13f)" d="M 260.014332 158.382088 
L 275.425149 158.382088 
L 275.425149 161.064721 
L 260.014332 161.064721 
z
" style="fill:#ff0000;stroke:#ff0000;stroke-linejoin:miter;"/>
   </g>
   <g id="patch_14">
    <path clip-path="url(#pec0ce7d13f)" d="M 279.277853 158.382088 
L 294.688671 158.382088 
L 294.688671 194.886876 
L 279.277853 194.886876 
z
" style="fill:#ff0000;stroke:#ff0000;stroke-linejoin:miter;"/>
   </g>
   <g id="patch_15">
    <path clip-path="url(#pec0ce7d13f)" d="M 298.541375 158.382088 
L 313.952192 158.382088 
L 313.952192 203.277836 
L 298.541375 203.277836 
z
" style="fill:#ff0000;stroke:#ff0000;stroke-linejoin:miter;"/>
   </g>
   <g id="patch_16">
    <path clip-path="url(#pec0ce7d13f)" d="M 317.804896 158.382088 
L 333.215713 158.382088 
L 333.215713 178.586996 
L 317.804896 178.586996 
z
" style="fill:#ff0000;stroke:#ff0000;stroke-linejoin:miter;"/>
   </g>
   <g id="patch_17">
    <path clip-path="url(#pec0ce7d13f)" d="M 337.068417 158.382088 
L 352.479234 158.382088 
L 352.479234 42.3361 
L 337.068417 42.3361 
z
" style="fill:#1f77b4;"/>
   </g>
   <g id="patch_18">
    <path clip-path="url(#pec0ce7d13f)" d="M 356.331939 158.382088 
L 371.742756 158.382088 
L 371.742756 129.018477 
L 356.331939 129.018477 
z
" style="fill:#1f77b4;"/>
   </g>
   <g id="matplotlib.axis_1">
    <g id="xtick_1">
     <g id="line2d_1">
      <defs>
       <path d="M 0 0 
L 0 3.5 
" id="mf9c310d69e" style="stroke:#000000;stroke-width:0.8;"/>
      </defs>
      <g>
       <use style="stroke:#000000;stroke-width:0.8;" x="75.084528" xlink:href="#mf9c310d69e" y="239.758125"/>
      </g>
     </g>
     <g id="text_1">
      <!-- blueGold -->
      <g transform="translate(77.843903 291.369063)rotate(-90)scale(0.1 -0.1)">
       <defs>
        <path d="M 3116 1747 
Q 3116 2381 2855 2742 
Q 2594 3103 2138 3103 
Q 1681 3103 1420 2742 
Q 1159 2381 1159 1747 
Q 1159 1113 1420 752 
Q 1681 391 2138 391 
Q 2594 391 2855 752 
Q 3116 1113 3116 1747 
z
M 1159 2969 
Q 1341 3281 1617 3432 
Q 1894 3584 2278 3584 
Q 2916 3584 3314 3078 
Q 3713 2572 3713 1747 
Q 3713 922 3314 415 
Q 2916 -91 2278 -91 
Q 1894 -91 1617 61 
Q 1341 213 1159 525 
L 1159 0 
L 581 0 
L 581 4863 
L 1159 4863 
L 1159 2969 
z
" id="DejaVuSans-62" transform="scale(0.015625)"/>
        <path d="M 603 4863 
L 1178 4863 
L 1178 0 
L 603 0 
L 603 4863 
z
" id="DejaVuSans-6c" transform="scale(0.015625)"/>
        <path d="M 544 1381 
L 544 3500 
L 1119 3500 
L 1119 1403 
Q 1119 906 1312 657 
Q 1506 409 1894 409 
Q 2359 409 2629 706 
Q 2900 1003 2900 1516 
L 2900 3500 
L 3475 3500 
L 3475 0 
L 2900 0 
L 2900 538 
Q 2691 219 2414 64 
Q 2138 -91 1772 -91 
Q 1169 -91 856 284 
Q 544 659 544 1381 
z
M 1991 3584 
L 1991 3584 
z
" id="DejaVuSans-75" transform="scale(0.015625)"/>
        <path d="M 3597 1894 
L 3597 1613 
L 953 1613 
Q 991 1019 1311 708 
Q 1631 397 2203 397 
Q 2534 397 2845 478 
Q 3156 559 3463 722 
L 3463 178 
Q 3153 47 2828 -22 
Q 2503 -91 2169 -91 
Q 1331 -91 842 396 
Q 353 884 353 1716 
Q 353 2575 817 3079 
Q 1281 3584 2069 3584 
Q 2775 3584 3186 3129 
Q 3597 2675 3597 1894 
z
M 3022 2063 
Q 3016 2534 2758 2815 
Q 2500 3097 2075 3097 
Q 1594 3097 1305 2825 
Q 1016 2553 972 2059 
L 3022 2063 
z
" id="DejaVuSans-65" transform="scale(0.015625)"/>
        <path d="M 3809 666 
L 3809 1919 
L 2778 1919 
L 2778 2438 
L 4434 2438 
L 4434 434 
Q 4069 175 3628 42 
Q 3188 -91 2688 -91 
Q 1594 -91 976 548 
Q 359 1188 359 2328 
Q 359 3472 976 4111 
Q 1594 4750 2688 4750 
Q 3144 4750 3555 4637 
Q 3966 4525 4313 4306 
L 4313 3634 
Q 3963 3931 3569 4081 
Q 3175 4231 2741 4231 
Q 1884 4231 1454 3753 
Q 1025 3275 1025 2328 
Q 1025 1384 1454 906 
Q 1884 428 2741 428 
Q 3075 428 3337 486 
Q 3600 544 3809 666 
z
" id="DejaVuSans-47" transform="scale(0.015625)"/>
        <path d="M 1959 3097 
Q 1497 3097 1228 2736 
Q 959 2375 959 1747 
Q 959 1119 1226 758 
Q 1494 397 1959 397 
Q 2419 397 2687 759 
Q 2956 1122 2956 1747 
Q 2956 2369 2687 2733 
Q 2419 3097 1959 3097 
z
M 1959 3584 
Q 2709 3584 3137 3096 
Q 3566 2609 3566 1747 
Q 3566 888 3137 398 
Q 2709 -91 1959 -91 
Q 1206 -91 779 398 
Q 353 888 353 1747 
Q 353 2609 779 3096 
Q 1206 3584 1959 3584 
z
" id="DejaVuSans-6f" transform="scale(0.015625)"/>
        <path d="M 2906 2969 
L 2906 4863 
L 3481 4863 
L 3481 0 
L 2906 0 
L 2906 525 
Q 2725 213 2448 61 
Q 2172 -91 1784 -91 
Q 1150 -91 751 415 
Q 353 922 353 1747 
Q 353 2572 751 3078 
Q 1150 3584 1784 3584 
Q 2172 3584 2448 3432 
Q 2725 3281 2906 2969 
z
M 947 1747 
Q 947 1113 1208 752 
Q 1469 391 1925 391 
Q 2381 391 2643 752 
Q 2906 1113 2906 1747 
Q 2906 2381 2643 2742 
Q 2381 3103 1925 3103 
Q 1469 3103 1208 2742 
Q 947 2381 947 1747 
z
" id="DejaVuSans-64" transform="scale(0.015625)"/>
       </defs>
       <use xlink:href="#DejaVuSans-62"/>
       <use x="63.476562" xlink:href="#DejaVuSans-6c"/>
       <use x="91.259766" xlink:href="#DejaVuSans-75"/>
       <use x="154.638672" xlink:href="#DejaVuSans-65"/>
       <use x="216.162109" xlink:href="#DejaVuSans-47"/>
       <use x="293.652344" xlink:href="#DejaVuSans-6f"/>
       <use x="354.833984" xlink:href="#DejaVuSans-6c"/>
       <use x="382.617188" xlink:href="#DejaVuSans-64"/>
      </g>
     </g>
    </g>
    <g id="xtick_2">
     <g id="line2d_2">
      <g>
       <use style="stroke:#000000;stroke-width:0.8;" x="94.348049" xlink:href="#mf9c310d69e" y="239.758125"/>
      </g>
     </g>
     <g id="text_2">
      <!-- blueMinionsKilled -->
      <g transform="translate(97.107424 333.956563)rotate(-90)scale(0.1 -0.1)">
       <defs>
        <path d="M 628 4666 
L 1569 4666 
L 2759 1491 
L 3956 4666 
L 4897 4666 
L 4897 0 
L 4281 0 
L 4281 4097 
L 3078 897 
L 2444 897 
L 1241 4097 
L 1241 0 
L 628 0 
L 628 4666 
z
" id="DejaVuSans-4d" transform="scale(0.015625)"/>
        <path d="M 603 3500 
L 1178 3500 
L 1178 0 
L 603 0 
L 603 3500 
z
M 603 4863 
L 1178 4863 
L 1178 4134 
L 603 4134 
L 603 4863 
z
" id="DejaVuSans-69" transform="scale(0.015625)"/>
        <path d="M 3513 2113 
L 3513 0 
L 2938 0 
L 2938 2094 
Q 2938 2591 2744 2837 
Q 2550 3084 2163 3084 
Q 1697 3084 1428 2787 
Q 1159 2491 1159 1978 
L 1159 0 
L 581 0 
L 581 3500 
L 1159 3500 
L 1159 2956 
Q 1366 3272 1645 3428 
Q 1925 3584 2291 3584 
Q 2894 3584 3203 3211 
Q 3513 2838 3513 2113 
z
" id="DejaVuSans-6e" transform="scale(0.015625)"/>
        <path d="M 2834 3397 
L 2834 2853 
Q 2591 2978 2328 3040 
Q 2066 3103 1784 3103 
Q 1356 3103 1142 2972 
Q 928 2841 928 2578 
Q 928 2378 1081 2264 
Q 1234 2150 1697 2047 
L 1894 2003 
Q 2506 1872 2764 1633 
Q 3022 1394 3022 966 
Q 3022 478 2636 193 
Q 2250 -91 1575 -91 
Q 1294 -91 989 -36 
Q 684 19 347 128 
L 347 722 
Q 666 556 975 473 
Q 1284 391 1588 391 
Q 1994 391 2212 530 
Q 2431 669 2431 922 
Q 2431 1156 2273 1281 
Q 2116 1406 1581 1522 
L 1381 1569 
Q 847 1681 609 1914 
Q 372 2147 372 2553 
Q 372 3047 722 3315 
Q 1072 3584 1716 3584 
Q 2034 3584 2315 3537 
Q 2597 3491 2834 3397 
z
" id="DejaVuSans-73" transform="scale(0.015625)"/>
        <path d="M 628 4666 
L 1259 4666 
L 1259 2694 
L 3353 4666 
L 4166 4666 
L 1850 2491 
L 4331 0 
L 3500 0 
L 1259 2247 
L 1259 0 
L 628 0 
L 628 4666 
z
" id="DejaVuSans-4b" transform="scale(0.015625)"/>
       </defs>
       <use xlink:href="#DejaVuSans-62"/>
       <use x="63.476562" xlink:href="#DejaVuSans-6c"/>
       <use x="91.259766" xlink:href="#DejaVuSans-75"/>
       <use x="154.638672" xlink:href="#DejaVuSans-65"/>
       <use x="216.162109" xlink:href="#DejaVuSans-4d"/>
       <use x="302.441406" xlink:href="#DejaVuSans-69"/>
       <use x="330.224609" xlink:href="#DejaVuSans-6e"/>
       <use x="393.603516" xlink:href="#DejaVuSans-69"/>
       <use x="421.386719" xlink:href="#DejaVuSans-6f"/>
       <use x="482.568359" xlink:href="#DejaVuSans-6e"/>
       <use x="545.947266" xlink:href="#DejaVuSans-73"/>
       <use x="598.046875" xlink:href="#DejaVuSans-4b"/>
       <use x="663.623047" xlink:href="#DejaVuSans-69"/>
       <use x="691.40625" xlink:href="#DejaVuSans-6c"/>
       <use x="719.189453" xlink:href="#DejaVuSans-6c"/>
       <use x="746.972656" xlink:href="#DejaVuSans-65"/>
       <use x="808.496094" xlink:href="#DejaVuSans-64"/>
      </g>
     </g>
    </g>
    <g id="xtick_3">
     <g id="line2d_3">
      <g>
       <use style="stroke:#000000;stroke-width:0.8;" x="113.61157" xlink:href="#mf9c310d69e" y="239.758125"/>
      </g>
     </g>
     <g id="text_3">
      <!-- blueJungleMin -->
      <g transform="translate(116.370945 317.02375)rotate(-90)scale(0.1 -0.1)">
       <defs>
        <path d="M 628 4666 
L 1259 4666 
L 1259 325 
Q 1259 -519 939 -900 
Q 619 -1281 -91 -1281 
L -331 -1281 
L -331 -750 
L -134 -750 
Q 284 -750 456 -515 
Q 628 -281 628 325 
L 628 4666 
z
" id="DejaVuSans-4a" transform="scale(0.015625)"/>
        <path d="M 2906 1791 
Q 2906 2416 2648 2759 
Q 2391 3103 1925 3103 
Q 1463 3103 1205 2759 
Q 947 2416 947 1791 
Q 947 1169 1205 825 
Q 1463 481 1925 481 
Q 2391 481 2648 825 
Q 2906 1169 2906 1791 
z
M 3481 434 
Q 3481 -459 3084 -895 
Q 2688 -1331 1869 -1331 
Q 1566 -1331 1297 -1286 
Q 1028 -1241 775 -1147 
L 775 -588 
Q 1028 -725 1275 -790 
Q 1522 -856 1778 -856 
Q 2344 -856 2625 -561 
Q 2906 -266 2906 331 
L 2906 616 
Q 2728 306 2450 153 
Q 2172 0 1784 0 
Q 1141 0 747 490 
Q 353 981 353 1791 
Q 353 2603 747 3093 
Q 1141 3584 1784 3584 
Q 2172 3584 2450 3431 
Q 2728 3278 2906 2969 
L 2906 3500 
L 3481 3500 
L 3481 434 
z
" id="DejaVuSans-67" transform="scale(0.015625)"/>
       </defs>
       <use xlink:href="#DejaVuSans-62"/>
       <use x="63.476562" xlink:href="#DejaVuSans-6c"/>
       <use x="91.259766" xlink:href="#DejaVuSans-75"/>
       <use x="154.638672" xlink:href="#DejaVuSans-65"/>
       <use x="216.162109" xlink:href="#DejaVuSans-4a"/>
       <use x="245.654297" xlink:href="#DejaVuSans-75"/>
       <use x="309.033203" xlink:href="#DejaVuSans-6e"/>
       <use x="372.412109" xlink:href="#DejaVuSans-67"/>
       <use x="435.888672" xlink:href="#DejaVuSans-6c"/>
       <use x="463.671875" xlink:href="#DejaVuSans-65"/>
       <use x="525.195312" xlink:href="#DejaVuSans-4d"/>
       <use x="611.474609" xlink:href="#DejaVuSans-69"/>
       <use x="639.257812" xlink:href="#DejaVuSans-6e"/>
      </g>
     </g>
    </g>
    <g id="xtick_4">
     <g id="line2d_4">
      <g>
       <use style="stroke:#000000;stroke-width:0.8;" x="132.875092" xlink:href="#mf9c310d69e" y="239.758125"/>
      </g>
     </g>
     <g id="text_4">
      <!-- blueAvgLevel -->
      <g transform="translate(135.634467 313.295625)rotate(-90)scale(0.1 -0.1)">
       <defs>
        <path d="M 2188 4044 
L 1331 1722 
L 3047 1722 
L 2188 4044 
z
M 1831 4666 
L 2547 4666 
L 4325 0 
L 3669 0 
L 3244 1197 
L 1141 1197 
L 716 0 
L 50 0 
L 1831 4666 
z
" id="DejaVuSans-41" transform="scale(0.015625)"/>
        <path d="M 191 3500 
L 800 3500 
L 1894 563 
L 2988 3500 
L 3597 3500 
L 2284 0 
L 1503 0 
L 191 3500 
z
" id="DejaVuSans-76" transform="scale(0.015625)"/>
        <path d="M 628 4666 
L 1259 4666 
L 1259 531 
L 3531 531 
L 3531 0 
L 628 0 
L 628 4666 
z
" id="DejaVuSans-4c" transform="scale(0.015625)"/>
       </defs>
       <use xlink:href="#DejaVuSans-62"/>
       <use x="63.476562" xlink:href="#DejaVuSans-6c"/>
       <use x="91.259766" xlink:href="#DejaVuSans-75"/>
       <use x="154.638672" xlink:href="#DejaVuSans-65"/>
       <use x="216.162109" xlink:href="#DejaVuSans-41"/>
       <use x="278.695312" xlink:href="#DejaVuSans-76"/>
       <use x="337.875" xlink:href="#DejaVuSans-67"/>
       <use x="401.351562" xlink:href="#DejaVuSans-4c"/>
       <use x="455.314453" xlink:href="#DejaVuSans-65"/>
       <use x="516.837891" xlink:href="#DejaVuSans-76"/>
       <use x="576.017578" xlink:href="#DejaVuSans-65"/>
       <use x="637.541016" xlink:href="#DejaVuSans-6c"/>
      </g>
     </g>
    </g>
    <g id="xtick_5">
     <g id="line2d_5">
      <g>
       <use style="stroke:#000000;stroke-width:0.8;" x="152.138613" xlink:href="#mf9c310d69e" y="239.758125"/>
      </g>
     </g>
     <g id="text_5">
      <!-- redGold -->
      <g transform="translate(154.897988 286.139375)rotate(-90)scale(0.1 -0.1)">
       <defs>
        <path d="M 2631 2963 
Q 2534 3019 2420 3045 
Q 2306 3072 2169 3072 
Q 1681 3072 1420 2755 
Q 1159 2438 1159 1844 
L 1159 0 
L 581 0 
L 581 3500 
L 1159 3500 
L 1159 2956 
Q 1341 3275 1631 3429 
Q 1922 3584 2338 3584 
Q 2397 3584 2469 3576 
Q 2541 3569 2628 3553 
L 2631 2963 
z
" id="DejaVuSans-72" transform="scale(0.015625)"/>
       </defs>
       <use xlink:href="#DejaVuSans-72"/>
       <use x="38.863281" xlink:href="#DejaVuSans-65"/>
       <use x="100.386719" xlink:href="#DejaVuSans-64"/>
       <use x="163.863281" xlink:href="#DejaVuSans-47"/>
       <use x="241.353516" xlink:href="#DejaVuSans-6f"/>
       <use x="302.535156" xlink:href="#DejaVuSans-6c"/>
       <use x="330.318359" xlink:href="#DejaVuSans-64"/>
      </g>
     </g>
    </g>
    <g id="xtick_6">
     <g id="line2d_6">
      <g>
       <use style="stroke:#000000;stroke-width:0.8;" x="171.402134" xlink:href="#mf9c310d69e" y="239.758125"/>
      </g>
     </g>
     <g id="text_6">
      <!-- redMinionsKilled -->
      <g transform="translate(174.161509 328.726875)rotate(-90)scale(0.1 -0.1)">
       <use xlink:href="#DejaVuSans-72"/>
       <use x="38.863281" xlink:href="#DejaVuSans-65"/>
       <use x="100.386719" xlink:href="#DejaVuSans-64"/>
       <use x="163.863281" xlink:href="#DejaVuSans-4d"/>
       <use x="250.142578" xlink:href="#DejaVuSans-69"/>
       <use x="277.925781" xlink:href="#DejaVuSans-6e"/>
       <use x="341.304688" xlink:href="#DejaVuSans-69"/>
       <use x="369.087891" xlink:href="#DejaVuSans-6f"/>
       <use x="430.269531" xlink:href="#DejaVuSans-6e"/>
       <use x="493.648438" xlink:href="#DejaVuSans-73"/>
       <use x="545.748047" xlink:href="#DejaVuSans-4b"/>
       <use x="611.324219" xlink:href="#DejaVuSans-69"/>
       <use x="639.107422" xlink:href="#DejaVuSans-6c"/>
       <use x="666.890625" xlink:href="#DejaVuSans-6c"/>
       <use x="694.673828" xlink:href="#DejaVuSans-65"/>
       <use x="756.197266" xlink:href="#DejaVuSans-64"/>
      </g>
     </g>
    </g>
    <g id="xtick_7">
     <g id="line2d_7">
      <g>
       <use style="stroke:#000000;stroke-width:0.8;" x="190.665656" xlink:href="#mf9c310d69e" y="239.758125"/>
      </g>
     </g>
     <g id="text_7">
      <!-- redJungleMinionsKilled -->
      <g transform="translate(193.425031 359.631563)rotate(-90)scale(0.1 -0.1)">
       <use xlink:href="#DejaVuSans-72"/>
       <use x="38.863281" xlink:href="#DejaVuSans-65"/>
       <use x="100.386719" xlink:href="#DejaVuSans-64"/>
       <use x="163.863281" xlink:href="#DejaVuSans-4a"/>
       <use x="193.355469" xlink:href="#DejaVuSans-75"/>
       <use x="256.734375" xlink:href="#DejaVuSans-6e"/>
       <use x="320.113281" xlink:href="#DejaVuSans-67"/>
       <use x="383.589844" xlink:href="#DejaVuSans-6c"/>
       <use x="411.373047" xlink:href="#DejaVuSans-65"/>
       <use x="472.896484" xlink:href="#DejaVuSans-4d"/>
       <use x="559.175781" xlink:href="#DejaVuSans-69"/>
       <use x="586.958984" xlink:href="#DejaVuSans-6e"/>
       <use x="650.337891" xlink:href="#DejaVuSans-69"/>
       <use x="678.121094" xlink:href="#DejaVuSans-6f"/>
       <use x="739.302734" xlink:href="#DejaVuSans-6e"/>
       <use x="802.681641" xlink:href="#DejaVuSans-73"/>
       <use x="854.78125" xlink:href="#DejaVuSans-4b"/>
       <use x="920.357422" xlink:href="#DejaVuSans-69"/>
       <use x="948.140625" xlink:href="#DejaVuSans-6c"/>
       <use x="975.923828" xlink:href="#DejaVuSans-6c"/>
       <use x="1003.707031" xlink:href="#DejaVuSans-65"/>
       <use x="1065.230469" xlink:href="#DejaVuSans-64"/>
      </g>
     </g>
    </g>
    <g id="xtick_8">
     <g id="line2d_8">
      <g>
       <use style="stroke:#000000;stroke-width:0.8;" x="209.929177" xlink:href="#mf9c310d69e" y="239.758125"/>
      </g>
     </g>
     <g id="text_8">
      <!-- redAvgLevel -->
      <g transform="translate(212.688552 308.065938)rotate(-90)scale(0.1 -0.1)">
       <use xlink:href="#DejaVuSans-72"/>
       <use x="38.863281" xlink:href="#DejaVuSans-65"/>
       <use x="100.386719" xlink:href="#DejaVuSans-64"/>
       <use x="163.863281" xlink:href="#DejaVuSans-41"/>
       <use x="226.396484" xlink:href="#DejaVuSans-76"/>
       <use x="285.576172" xlink:href="#DejaVuSans-67"/>
       <use x="349.052734" xlink:href="#DejaVuSans-4c"/>
       <use x="403.015625" xlink:href="#DejaVuSans-65"/>
       <use x="464.539062" xlink:href="#DejaVuSans-76"/>
       <use x="523.71875" xlink:href="#DejaVuSans-65"/>
       <use x="585.242188" xlink:href="#DejaVuSans-6c"/>
      </g>
     </g>
    </g>
    <g id="xtick_9">
     <g id="line2d_9">
      <g>
       <use style="stroke:#000000;stroke-width:0.8;" x="229.192698" xlink:href="#mf9c310d69e" y="239.758125"/>
      </g>
     </g>
     <g id="text_9">
      <!-- blueChampKills -->
      <g transform="translate(231.952073 324.014375)rotate(-90)scale(0.1 -0.1)">
       <defs>
        <path d="M 4122 4306 
L 4122 3641 
Q 3803 3938 3442 4084 
Q 3081 4231 2675 4231 
Q 1875 4231 1450 3742 
Q 1025 3253 1025 2328 
Q 1025 1406 1450 917 
Q 1875 428 2675 428 
Q 3081 428 3442 575 
Q 3803 722 4122 1019 
L 4122 359 
Q 3791 134 3420 21 
Q 3050 -91 2638 -91 
Q 1578 -91 968 557 
Q 359 1206 359 2328 
Q 359 3453 968 4101 
Q 1578 4750 2638 4750 
Q 3056 4750 3426 4639 
Q 3797 4528 4122 4306 
z
" id="DejaVuSans-43" transform="scale(0.015625)"/>
        <path d="M 3513 2113 
L 3513 0 
L 2938 0 
L 2938 2094 
Q 2938 2591 2744 2837 
Q 2550 3084 2163 3084 
Q 1697 3084 1428 2787 
Q 1159 2491 1159 1978 
L 1159 0 
L 581 0 
L 581 4863 
L 1159 4863 
L 1159 2956 
Q 1366 3272 1645 3428 
Q 1925 3584 2291 3584 
Q 2894 3584 3203 3211 
Q 3513 2838 3513 2113 
z
" id="DejaVuSans-68" transform="scale(0.015625)"/>
        <path d="M 2194 1759 
Q 1497 1759 1228 1600 
Q 959 1441 959 1056 
Q 959 750 1161 570 
Q 1363 391 1709 391 
Q 2188 391 2477 730 
Q 2766 1069 2766 1631 
L 2766 1759 
L 2194 1759 
z
M 3341 1997 
L 3341 0 
L 2766 0 
L 2766 531 
Q 2569 213 2275 61 
Q 1981 -91 1556 -91 
Q 1019 -91 701 211 
Q 384 513 384 1019 
Q 384 1609 779 1909 
Q 1175 2209 1959 2209 
L 2766 2209 
L 2766 2266 
Q 2766 2663 2505 2880 
Q 2244 3097 1772 3097 
Q 1472 3097 1187 3025 
Q 903 2953 641 2809 
L 641 3341 
Q 956 3463 1253 3523 
Q 1550 3584 1831 3584 
Q 2591 3584 2966 3190 
Q 3341 2797 3341 1997 
z
" id="DejaVuSans-61" transform="scale(0.015625)"/>
        <path d="M 3328 2828 
Q 3544 3216 3844 3400 
Q 4144 3584 4550 3584 
Q 5097 3584 5394 3201 
Q 5691 2819 5691 2113 
L 5691 0 
L 5113 0 
L 5113 2094 
Q 5113 2597 4934 2840 
Q 4756 3084 4391 3084 
Q 3944 3084 3684 2787 
Q 3425 2491 3425 1978 
L 3425 0 
L 2847 0 
L 2847 2094 
Q 2847 2600 2669 2842 
Q 2491 3084 2119 3084 
Q 1678 3084 1418 2786 
Q 1159 2488 1159 1978 
L 1159 0 
L 581 0 
L 581 3500 
L 1159 3500 
L 1159 2956 
Q 1356 3278 1631 3431 
Q 1906 3584 2284 3584 
Q 2666 3584 2933 3390 
Q 3200 3197 3328 2828 
z
" id="DejaVuSans-6d" transform="scale(0.015625)"/>
        <path d="M 1159 525 
L 1159 -1331 
L 581 -1331 
L 581 3500 
L 1159 3500 
L 1159 2969 
Q 1341 3281 1617 3432 
Q 1894 3584 2278 3584 
Q 2916 3584 3314 3078 
Q 3713 2572 3713 1747 
Q 3713 922 3314 415 
Q 2916 -91 2278 -91 
Q 1894 -91 1617 61 
Q 1341 213 1159 525 
z
M 3116 1747 
Q 3116 2381 2855 2742 
Q 2594 3103 2138 3103 
Q 1681 3103 1420 2742 
Q 1159 2381 1159 1747 
Q 1159 1113 1420 752 
Q 1681 391 2138 391 
Q 2594 391 2855 752 
Q 3116 1113 3116 1747 
z
" id="DejaVuSans-70" transform="scale(0.015625)"/>
       </defs>
       <use xlink:href="#DejaVuSans-62"/>
       <use x="63.476562" xlink:href="#DejaVuSans-6c"/>
       <use x="91.259766" xlink:href="#DejaVuSans-75"/>
       <use x="154.638672" xlink:href="#DejaVuSans-65"/>
       <use x="216.162109" xlink:href="#DejaVuSans-43"/>
       <use x="285.986328" xlink:href="#DejaVuSans-68"/>
       <use x="349.365234" xlink:href="#DejaVuSans-61"/>
       <use x="410.644531" xlink:href="#DejaVuSans-6d"/>
       <use x="508.056641" xlink:href="#DejaVuSans-70"/>
       <use x="571.533203" xlink:href="#DejaVuSans-4b"/>
       <use x="637.109375" xlink:href="#DejaVuSans-69"/>
       <use x="664.892578" xlink:href="#DejaVuSans-6c"/>
       <use x="692.675781" xlink:href="#DejaVuSans-6c"/>
       <use x="720.458984" xlink:href="#DejaVuSans-73"/>
      </g>
     </g>
    </g>
    <g id="xtick_10">
     <g id="line2d_10">
      <g>
       <use style="stroke:#000000;stroke-width:0.8;" x="248.456219" xlink:href="#mf9c310d69e" y="239.758125"/>
      </g>
     </g>
     <g id="text_10">
      <!-- blueHeraldKills -->
      <g transform="translate(251.215594 321.515938)rotate(-90)scale(0.1 -0.1)">
       <defs>
        <path d="M 628 4666 
L 1259 4666 
L 1259 2753 
L 3553 2753 
L 3553 4666 
L 4184 4666 
L 4184 0 
L 3553 0 
L 3553 2222 
L 1259 2222 
L 1259 0 
L 628 0 
L 628 4666 
z
" id="DejaVuSans-48" transform="scale(0.015625)"/>
       </defs>
       <use xlink:href="#DejaVuSans-62"/>
       <use x="63.476562" xlink:href="#DejaVuSans-6c"/>
       <use x="91.259766" xlink:href="#DejaVuSans-75"/>
       <use x="154.638672" xlink:href="#DejaVuSans-65"/>
       <use x="216.162109" xlink:href="#DejaVuSans-48"/>
       <use x="291.357422" xlink:href="#DejaVuSans-65"/>
       <use x="352.880859" xlink:href="#DejaVuSans-72"/>
       <use x="393.994141" xlink:href="#DejaVuSans-61"/>
       <use x="455.273438" xlink:href="#DejaVuSans-6c"/>
       <use x="483.056641" xlink:href="#DejaVuSans-64"/>
       <use x="546.533203" xlink:href="#DejaVuSans-4b"/>
       <use x="612.109375" xlink:href="#DejaVuSans-69"/>
       <use x="639.892578" xlink:href="#DejaVuSans-6c"/>
       <use x="667.675781" xlink:href="#DejaVuSans-6c"/>
       <use x="695.458984" xlink:href="#DejaVuSans-73"/>
      </g>
     </g>
    </g>
    <g id="xtick_11">
     <g id="line2d_11">
      <g>
       <use style="stroke:#000000;stroke-width:0.8;" x="267.719741" xlink:href="#mf9c310d69e" y="239.758125"/>
      </g>
     </g>
     <g id="text_11">
      <!-- blueTowersDestroyed -->
      <g transform="translate(270.479116 353.96125)rotate(-90)scale(0.1 -0.1)">
       <defs>
        <path d="M -19 4666 
L 3928 4666 
L 3928 4134 
L 2272 4134 
L 2272 0 
L 1638 0 
L 1638 4134 
L -19 4134 
L -19 4666 
z
" id="DejaVuSans-54" transform="scale(0.015625)"/>
        <path d="M 269 3500 
L 844 3500 
L 1563 769 
L 2278 3500 
L 2956 3500 
L 3675 769 
L 4391 3500 
L 4966 3500 
L 4050 0 
L 3372 0 
L 2619 2869 
L 1863 0 
L 1184 0 
L 269 3500 
z
" id="DejaVuSans-77" transform="scale(0.015625)"/>
        <path d="M 1259 4147 
L 1259 519 
L 2022 519 
Q 2988 519 3436 956 
Q 3884 1394 3884 2338 
Q 3884 3275 3436 3711 
Q 2988 4147 2022 4147 
L 1259 4147 
z
M 628 4666 
L 1925 4666 
Q 3281 4666 3915 4102 
Q 4550 3538 4550 2338 
Q 4550 1131 3912 565 
Q 3275 0 1925 0 
L 628 0 
L 628 4666 
z
" id="DejaVuSans-44" transform="scale(0.015625)"/>
        <path d="M 1172 4494 
L 1172 3500 
L 2356 3500 
L 2356 3053 
L 1172 3053 
L 1172 1153 
Q 1172 725 1289 603 
Q 1406 481 1766 481 
L 2356 481 
L 2356 0 
L 1766 0 
Q 1100 0 847 248 
Q 594 497 594 1153 
L 594 3053 
L 172 3053 
L 172 3500 
L 594 3500 
L 594 4494 
L 1172 4494 
z
" id="DejaVuSans-74" transform="scale(0.015625)"/>
        <path d="M 2059 -325 
Q 1816 -950 1584 -1140 
Q 1353 -1331 966 -1331 
L 506 -1331 
L 506 -850 
L 844 -850 
Q 1081 -850 1212 -737 
Q 1344 -625 1503 -206 
L 1606 56 
L 191 3500 
L 800 3500 
L 1894 763 
L 2988 3500 
L 3597 3500 
L 2059 -325 
z
" id="DejaVuSans-79" transform="scale(0.015625)"/>
       </defs>
       <use xlink:href="#DejaVuSans-62"/>
       <use x="63.476562" xlink:href="#DejaVuSans-6c"/>
       <use x="91.259766" xlink:href="#DejaVuSans-75"/>
       <use x="154.638672" xlink:href="#DejaVuSans-65"/>
       <use x="216.162109" xlink:href="#DejaVuSans-54"/>
       <use x="260.246094" xlink:href="#DejaVuSans-6f"/>
       <use x="321.427734" xlink:href="#DejaVuSans-77"/>
       <use x="403.214844" xlink:href="#DejaVuSans-65"/>
       <use x="464.738281" xlink:href="#DejaVuSans-72"/>
       <use x="505.851562" xlink:href="#DejaVuSans-73"/>
       <use x="557.951172" xlink:href="#DejaVuSans-44"/>
       <use x="634.953125" xlink:href="#DejaVuSans-65"/>
       <use x="696.476562" xlink:href="#DejaVuSans-73"/>
       <use x="748.576172" xlink:href="#DejaVuSans-74"/>
       <use x="787.785156" xlink:href="#DejaVuSans-72"/>
       <use x="826.648438" xlink:href="#DejaVuSans-6f"/>
       <use x="887.830078" xlink:href="#DejaVuSans-79"/>
       <use x="947.009766" xlink:href="#DejaVuSans-65"/>
       <use x="1008.533203" xlink:href="#DejaVuSans-64"/>
      </g>
     </g>
    </g>
    <g id="xtick_12">
     <g id="line2d_12">
      <g>
       <use style="stroke:#000000;stroke-width:0.8;" x="286.983262" xlink:href="#mf9c310d69e" y="239.758125"/>
      </g>
     </g>
     <g id="text_12">
      <!-- redChampKills -->
      <g transform="translate(289.742637 318.784688)rotate(-90)scale(0.1 -0.1)">
       <use xlink:href="#DejaVuSans-72"/>
       <use x="38.863281" xlink:href="#DejaVuSans-65"/>
       <use x="100.386719" xlink:href="#DejaVuSans-64"/>
       <use x="163.863281" xlink:href="#DejaVuSans-43"/>
       <use x="233.6875" xlink:href="#DejaVuSans-68"/>
       <use x="297.066406" xlink:href="#DejaVuSans-61"/>
       <use x="358.345703" xlink:href="#DejaVuSans-6d"/>
       <use x="455.757812" xlink:href="#DejaVuSans-70"/>
       <use x="519.234375" xlink:href="#DejaVuSans-4b"/>
       <use x="584.810547" xlink:href="#DejaVuSans-69"/>
       <use x="612.59375" xlink:href="#DejaVuSans-6c"/>
       <use x="640.376953" xlink:href="#DejaVuSans-6c"/>
       <use x="668.160156" xlink:href="#DejaVuSans-73"/>
      </g>
     </g>
    </g>
    <g id="xtick_13">
     <g id="line2d_13">
      <g>
       <use style="stroke:#000000;stroke-width:0.8;" x="306.246783" xlink:href="#mf9c310d69e" y="239.758125"/>
      </g>
     </g>
     <g id="text_13">
      <!-- redHeraldKills -->
      <g transform="translate(309.006158 316.28625)rotate(-90)scale(0.1 -0.1)">
       <use xlink:href="#DejaVuSans-72"/>
       <use x="38.863281" xlink:href="#DejaVuSans-65"/>
       <use x="100.386719" xlink:href="#DejaVuSans-64"/>
       <use x="163.863281" xlink:href="#DejaVuSans-48"/>
       <use x="239.058594" xlink:href="#DejaVuSans-65"/>
       <use x="300.582031" xlink:href="#DejaVuSans-72"/>
       <use x="341.695312" xlink:href="#DejaVuSans-61"/>
       <use x="402.974609" xlink:href="#DejaVuSans-6c"/>
       <use x="430.757812" xlink:href="#DejaVuSans-64"/>
       <use x="494.234375" xlink:href="#DejaVuSans-4b"/>
       <use x="559.810547" xlink:href="#DejaVuSans-69"/>
       <use x="587.59375" xlink:href="#DejaVuSans-6c"/>
       <use x="615.376953" xlink:href="#DejaVuSans-6c"/>
       <use x="643.160156" xlink:href="#DejaVuSans-73"/>
      </g>
     </g>
    </g>
    <g id="xtick_14">
     <g id="line2d_14">
      <g>
       <use style="stroke:#000000;stroke-width:0.8;" x="325.510305" xlink:href="#mf9c310d69e" y="239.758125"/>
      </g>
     </g>
     <g id="text_14">
      <!-- redTowersDestroyed -->
      <g transform="translate(328.26968 348.731562)rotate(-90)scale(0.1 -0.1)">
       <use xlink:href="#DejaVuSans-72"/>
       <use x="38.863281" xlink:href="#DejaVuSans-65"/>
       <use x="100.386719" xlink:href="#DejaVuSans-64"/>
       <use x="163.863281" xlink:href="#DejaVuSans-54"/>
       <use x="207.947266" xlink:href="#DejaVuSans-6f"/>
       <use x="269.128906" xlink:href="#DejaVuSans-77"/>
       <use x="350.916016" xlink:href="#DejaVuSans-65"/>
       <use x="412.439453" xlink:href="#DejaVuSans-72"/>
       <use x="453.552734" xlink:href="#DejaVuSans-73"/>
       <use x="505.652344" xlink:href="#DejaVuSans-44"/>
       <use x="582.654297" xlink:href="#DejaVuSans-65"/>
       <use x="644.177734" xlink:href="#DejaVuSans-73"/>
       <use x="696.277344" xlink:href="#DejaVuSans-74"/>
       <use x="735.486328" xlink:href="#DejaVuSans-72"/>
       <use x="774.349609" xlink:href="#DejaVuSans-6f"/>
       <use x="835.53125" xlink:href="#DejaVuSans-79"/>
       <use x="894.710938" xlink:href="#DejaVuSans-65"/>
       <use x="956.234375" xlink:href="#DejaVuSans-64"/>
      </g>
     </g>
    </g>
    <g id="xtick_15">
     <g id="line2d_15">
      <g>
       <use style="stroke:#000000;stroke-width:0.8;" x="344.773826" xlink:href="#mf9c310d69e" y="239.758125"/>
      </g>
     </g>
     <g id="text_15">
      <!-- blueGold_Diff -->
      <g transform="translate(347.394138 313.887812)rotate(-90)scale(0.1 -0.1)">
       <defs>
        <path d="M 3263 -1063 
L 3263 -1509 
L -63 -1509 
L -63 -1063 
L 3263 -1063 
z
" id="DejaVuSans-5f" transform="scale(0.015625)"/>
        <path d="M 2375 4863 
L 2375 4384 
L 1825 4384 
Q 1516 4384 1395 4259 
Q 1275 4134 1275 3809 
L 1275 3500 
L 2222 3500 
L 2222 3053 
L 1275 3053 
L 1275 0 
L 697 0 
L 697 3053 
L 147 3053 
L 147 3500 
L 697 3500 
L 697 3744 
Q 697 4328 969 4595 
Q 1241 4863 1831 4863 
L 2375 4863 
z
" id="DejaVuSans-66" transform="scale(0.015625)"/>
       </defs>
       <use xlink:href="#DejaVuSans-62"/>
       <use x="63.476562" xlink:href="#DejaVuSans-6c"/>
       <use x="91.259766" xlink:href="#DejaVuSans-75"/>
       <use x="154.638672" xlink:href="#DejaVuSans-65"/>
       <use x="216.162109" xlink:href="#DejaVuSans-47"/>
       <use x="293.652344" xlink:href="#DejaVuSans-6f"/>
       <use x="354.833984" xlink:href="#DejaVuSans-6c"/>
       <use x="382.617188" xlink:href="#DejaVuSans-64"/>
       <use x="446.09375" xlink:href="#DejaVuSans-5f"/>
       <use x="496.09375" xlink:href="#DejaVuSans-44"/>
       <use x="573.095703" xlink:href="#DejaVuSans-69"/>
       <use x="600.878906" xlink:href="#DejaVuSans-66"/>
       <use x="636.083984" xlink:href="#DejaVuSans-66"/>
      </g>
     </g>
    </g>
    <g id="xtick_16">
     <g id="line2d_16">
      <g>
       <use style="stroke:#000000;stroke-width:0.8;" x="364.037347" xlink:href="#mf9c310d69e" y="239.758125"/>
      </g>
     </g>
     <g id="text_16">
      <!-- blueChamp_Kills_Diff -->
      <g transform="translate(366.65766 351.533125)rotate(-90)scale(0.1 -0.1)">
       <use xlink:href="#DejaVuSans-62"/>
       <use x="63.476562" xlink:href="#DejaVuSans-6c"/>
       <use x="91.259766" xlink:href="#DejaVuSans-75"/>
       <use x="154.638672" xlink:href="#DejaVuSans-65"/>
       <use x="216.162109" xlink:href="#DejaVuSans-43"/>
       <use x="285.986328" xlink:href="#DejaVuSans-68"/>
       <use x="349.365234" xlink:href="#DejaVuSans-61"/>
       <use x="410.644531" xlink:href="#DejaVuSans-6d"/>
       <use x="508.056641" xlink:href="#DejaVuSans-70"/>
       <use x="571.533203" xlink:href="#DejaVuSans-5f"/>
       <use x="621.533203" xlink:href="#DejaVuSans-4b"/>
       <use x="687.109375" xlink:href="#DejaVuSans-69"/>
       <use x="714.892578" xlink:href="#DejaVuSans-6c"/>
       <use x="742.675781" xlink:href="#DejaVuSans-6c"/>
       <use x="770.458984" xlink:href="#DejaVuSans-73"/>
       <use x="822.558594" xlink:href="#DejaVuSans-5f"/>
       <use x="872.558594" xlink:href="#DejaVuSans-44"/>
       <use x="949.560547" xlink:href="#DejaVuSans-69"/>
       <use x="977.34375" xlink:href="#DejaVuSans-66"/>
       <use x="1012.548828" xlink:href="#DejaVuSans-66"/>
      </g>
     </g>
    </g>
   </g>
   <g id="matplotlib.axis_2">
    <g id="ytick_1">
     <g id="line2d_17">
      <defs>
       <path d="M 0 0 
L -3.5 0 
" id="m984f47e419" style="stroke:#000000;stroke-width:0.8;"/>
      </defs>
      <g>
       <use style="stroke:#000000;stroke-width:0.8;" x="52.160938" xlink:href="#m984f47e419" y="239.104157"/>
      </g>
     </g>
     <g id="text_17">
      <!-- −0.4 -->
      <g transform="translate(20.878125 242.903376)scale(0.1 -0.1)">
       <defs>
        <path d="M 678 2272 
L 4684 2272 
L 4684 1741 
L 678 1741 
L 678 2272 
z
" id="DejaVuSans-2212" transform="scale(0.015625)"/>
        <path d="M 2034 4250 
Q 1547 4250 1301 3770 
Q 1056 3291 1056 2328 
Q 1056 1369 1301 889 
Q 1547 409 2034 409 
Q 2525 409 2770 889 
Q 3016 1369 3016 2328 
Q 3016 3291 2770 3770 
Q 2525 4250 2034 4250 
z
M 2034 4750 
Q 2819 4750 3233 4129 
Q 3647 3509 3647 2328 
Q 3647 1150 3233 529 
Q 2819 -91 2034 -91 
Q 1250 -91 836 529 
Q 422 1150 422 2328 
Q 422 3509 836 4129 
Q 1250 4750 2034 4750 
z
" id="DejaVuSans-30" transform="scale(0.015625)"/>
        <path d="M 684 794 
L 1344 794 
L 1344 0 
L 684 0 
L 684 794 
z
" id="DejaVuSans-2e" transform="scale(0.015625)"/>
        <path d="M 2419 4116 
L 825 1625 
L 2419 1625 
L 2419 4116 
z
M 2253 4666 
L 3047 4666 
L 3047 1625 
L 3713 1625 
L 3713 1100 
L 3047 1100 
L 3047 0 
L 2419 0 
L 2419 1100 
L 313 1100 
L 313 1709 
L 2253 4666 
z
" id="DejaVuSans-34" transform="scale(0.015625)"/>
       </defs>
       <use xlink:href="#DejaVuSans-2212"/>
       <use x="83.789062" xlink:href="#DejaVuSans-30"/>
       <use x="147.412109" xlink:href="#DejaVuSans-2e"/>
       <use x="179.199219" xlink:href="#DejaVuSans-34"/>
      </g>
     </g>
    </g>
    <g id="ytick_2">
     <g id="line2d_18">
      <g>
       <use style="stroke:#000000;stroke-width:0.8;" x="52.160938" xlink:href="#m984f47e419" y="198.743123"/>
      </g>
     </g>
     <g id="text_18">
      <!-- −0.2 -->
      <g transform="translate(20.878125 202.542341)scale(0.1 -0.1)">
       <defs>
        <path d="M 1228 531 
L 3431 531 
L 3431 0 
L 469 0 
L 469 531 
Q 828 903 1448 1529 
Q 2069 2156 2228 2338 
Q 2531 2678 2651 2914 
Q 2772 3150 2772 3378 
Q 2772 3750 2511 3984 
Q 2250 4219 1831 4219 
Q 1534 4219 1204 4116 
Q 875 4013 500 3803 
L 500 4441 
Q 881 4594 1212 4672 
Q 1544 4750 1819 4750 
Q 2544 4750 2975 4387 
Q 3406 4025 3406 3419 
Q 3406 3131 3298 2873 
Q 3191 2616 2906 2266 
Q 2828 2175 2409 1742 
Q 1991 1309 1228 531 
z
" id="DejaVuSans-32" transform="scale(0.015625)"/>
       </defs>
       <use xlink:href="#DejaVuSans-2212"/>
       <use x="83.789062" xlink:href="#DejaVuSans-30"/>
       <use x="147.412109" xlink:href="#DejaVuSans-2e"/>
       <use x="179.199219" xlink:href="#DejaVuSans-32"/>
      </g>
     </g>
    </g>
    <g id="ytick_3">
     <g id="line2d_19">
      <g>
       <use style="stroke:#000000;stroke-width:0.8;" x="52.160938" xlink:href="#m984f47e419" y="158.382088"/>
      </g>
     </g>
     <g id="text_19">
      <!-- 0.0 -->
      <g transform="translate(29.257813 162.181307)scale(0.1 -0.1)">
       <use xlink:href="#DejaVuSans-30"/>
       <use x="63.623047" xlink:href="#DejaVuSans-2e"/>
       <use x="95.410156" xlink:href="#DejaVuSans-30"/>
      </g>
     </g>
    </g>
    <g id="ytick_4">
     <g id="line2d_20">
      <g>
       <use style="stroke:#000000;stroke-width:0.8;" x="52.160938" xlink:href="#m984f47e419" y="118.021054"/>
      </g>
     </g>
     <g id="text_20">
      <!-- 0.2 -->
      <g transform="translate(29.257813 121.820272)scale(0.1 -0.1)">
       <use xlink:href="#DejaVuSans-30"/>
       <use x="63.623047" xlink:href="#DejaVuSans-2e"/>
       <use x="95.410156" xlink:href="#DejaVuSans-32"/>
      </g>
     </g>
    </g>
    <g id="ytick_5">
     <g id="line2d_21">
      <g>
       <use style="stroke:#000000;stroke-width:0.8;" x="52.160938" xlink:href="#m984f47e419" y="77.660019"/>
      </g>
     </g>
     <g id="text_21">
      <!-- 0.4 -->
      <g transform="translate(29.257813 81.459238)scale(0.1 -0.1)">
       <use xlink:href="#DejaVuSans-30"/>
       <use x="63.623047" xlink:href="#DejaVuSans-2e"/>
       <use x="95.410156" xlink:href="#DejaVuSans-34"/>
      </g>
     </g>
    </g>
    <g id="ytick_6">
     <g id="line2d_22">
      <g>
       <use style="stroke:#000000;stroke-width:0.8;" x="52.160938" xlink:href="#m984f47e419" y="37.298985"/>
      </g>
     </g>
     <g id="text_22">
      <!-- 0.6 -->
      <g transform="translate(29.257813 41.098203)scale(0.1 -0.1)">
       <defs>
        <path d="M 2113 2584 
Q 1688 2584 1439 2293 
Q 1191 2003 1191 1497 
Q 1191 994 1439 701 
Q 1688 409 2113 409 
Q 2538 409 2786 701 
Q 3034 994 3034 1497 
Q 3034 2003 2786 2293 
Q 2538 2584 2113 2584 
z
M 3366 4563 
L 3366 3988 
Q 3128 4100 2886 4159 
Q 2644 4219 2406 4219 
Q 1781 4219 1451 3797 
Q 1122 3375 1075 2522 
Q 1259 2794 1537 2939 
Q 1816 3084 2150 3084 
Q 2853 3084 3261 2657 
Q 3669 2231 3669 1497 
Q 3669 778 3244 343 
Q 2819 -91 2113 -91 
Q 1303 -91 875 529 
Q 447 1150 447 2328 
Q 447 3434 972 4092 
Q 1497 4750 2381 4750 
Q 2619 4750 2861 4703 
Q 3103 4656 3366 4563 
z
" id="DejaVuSans-36" transform="scale(0.015625)"/>
       </defs>
       <use xlink:href="#DejaVuSans-30"/>
       <use x="63.623047" xlink:href="#DejaVuSans-2e"/>
       <use x="95.410156" xlink:href="#DejaVuSans-36"/>
      </g>
     </g>
    </g>
    <g id="text_23">
     <!-- Beta Increase in Log Odds -->
     <g transform="translate(14.798438 196.462344)rotate(-90)scale(0.1 -0.1)">
      <defs>
       <path d="M 1259 2228 
L 1259 519 
L 2272 519 
Q 2781 519 3026 730 
Q 3272 941 3272 1375 
Q 3272 1813 3026 2020 
Q 2781 2228 2272 2228 
L 1259 2228 
z
M 1259 4147 
L 1259 2741 
L 2194 2741 
Q 2656 2741 2882 2914 
Q 3109 3088 3109 3444 
Q 3109 3797 2882 3972 
Q 2656 4147 2194 4147 
L 1259 4147 
z
M 628 4666 
L 2241 4666 
Q 2963 4666 3353 4366 
Q 3744 4066 3744 3513 
Q 3744 3084 3544 2831 
Q 3344 2578 2956 2516 
Q 3422 2416 3680 2098 
Q 3938 1781 3938 1306 
Q 3938 681 3513 340 
Q 3088 0 2303 0 
L 628 0 
L 628 4666 
z
" id="DejaVuSans-42" transform="scale(0.015625)"/>
       <path id="DejaVuSans-20" transform="scale(0.015625)"/>
       <path d="M 628 4666 
L 1259 4666 
L 1259 0 
L 628 0 
L 628 4666 
z
" id="DejaVuSans-49" transform="scale(0.015625)"/>
       <path d="M 3122 3366 
L 3122 2828 
Q 2878 2963 2633 3030 
Q 2388 3097 2138 3097 
Q 1578 3097 1268 2742 
Q 959 2388 959 1747 
Q 959 1106 1268 751 
Q 1578 397 2138 397 
Q 2388 397 2633 464 
Q 2878 531 3122 666 
L 3122 134 
Q 2881 22 2623 -34 
Q 2366 -91 2075 -91 
Q 1284 -91 818 406 
Q 353 903 353 1747 
Q 353 2603 823 3093 
Q 1294 3584 2113 3584 
Q 2378 3584 2631 3529 
Q 2884 3475 3122 3366 
z
" id="DejaVuSans-63" transform="scale(0.015625)"/>
       <path d="M 2522 4238 
Q 1834 4238 1429 3725 
Q 1025 3213 1025 2328 
Q 1025 1447 1429 934 
Q 1834 422 2522 422 
Q 3209 422 3611 934 
Q 4013 1447 4013 2328 
Q 4013 3213 3611 3725 
Q 3209 4238 2522 4238 
z
M 2522 4750 
Q 3503 4750 4090 4092 
Q 4678 3434 4678 2328 
Q 4678 1225 4090 567 
Q 3503 -91 2522 -91 
Q 1538 -91 948 565 
Q 359 1222 359 2328 
Q 359 3434 948 4092 
Q 1538 4750 2522 4750 
z
" id="DejaVuSans-4f" transform="scale(0.015625)"/>
      </defs>
      <use xlink:href="#DejaVuSans-42"/>
      <use x="68.603516" xlink:href="#DejaVuSans-65"/>
      <use x="130.126953" xlink:href="#DejaVuSans-74"/>
      <use x="169.335938" xlink:href="#DejaVuSans-61"/>
      <use x="230.615234" xlink:href="#DejaVuSans-20"/>
      <use x="262.402344" xlink:href="#DejaVuSans-49"/>
      <use x="291.894531" xlink:href="#DejaVuSans-6e"/>
      <use x="355.273438" xlink:href="#DejaVuSans-63"/>
      <use x="410.253906" xlink:href="#DejaVuSans-72"/>
      <use x="449.117188" xlink:href="#DejaVuSans-65"/>
      <use x="510.640625" xlink:href="#DejaVuSans-61"/>
      <use x="571.919922" xlink:href="#DejaVuSans-73"/>
      <use x="624.019531" xlink:href="#DejaVuSans-65"/>
      <use x="685.542969" xlink:href="#DejaVuSans-20"/>
      <use x="717.330078" xlink:href="#DejaVuSans-69"/>
      <use x="745.113281" xlink:href="#DejaVuSans-6e"/>
      <use x="808.492188" xlink:href="#DejaVuSans-20"/>
      <use x="840.279297" xlink:href="#DejaVuSans-4c"/>
      <use x="894.242188" xlink:href="#DejaVuSans-6f"/>
      <use x="955.423828" xlink:href="#DejaVuSans-67"/>
      <use x="1018.900391" xlink:href="#DejaVuSans-20"/>
      <use x="1050.6875" xlink:href="#DejaVuSans-4f"/>
      <use x="1129.398438" xlink:href="#DejaVuSans-64"/>
      <use x="1192.875" xlink:href="#DejaVuSans-64"/>
      <use x="1256.351562" xlink:href="#DejaVuSans-73"/>
     </g>
    </g>
   </g>
   <g id="patch_19">
    <path d="M 52.160938 239.758125 
L 52.160938 22.318125 
" style="fill:none;stroke:#000000;stroke-linecap:square;stroke-linejoin:miter;stroke-width:0.8;"/>
   </g>
   <g id="patch_20">
    <path d="M 386.960938 239.758125 
L 386.960938 22.318125 
" style="fill:none;stroke:#000000;stroke-linecap:square;stroke-linejoin:miter;stroke-width:0.8;"/>
   </g>
   <g id="patch_21">
    <path d="M 52.160938 239.758125 
L 386.960938 239.758125 
" style="fill:none;stroke:#000000;stroke-linecap:square;stroke-linejoin:miter;stroke-width:0.8;"/>
   </g>
   <g id="patch_22">
    <path d="M 52.160938 22.318125 
L 386.960938 22.318125 
" style="fill:none;stroke:#000000;stroke-linecap:square;stroke-linejoin:miter;stroke-width:0.8;"/>
   </g>
   <g id="text_24">
    <!-- Coefficient Increase in Log Odds for Each Feature -->
    <g transform="translate(71.424688 16.318125)scale(0.12 -0.12)">
     <defs>
      <path d="M 628 4666 
L 3578 4666 
L 3578 4134 
L 1259 4134 
L 1259 2753 
L 3481 2753 
L 3481 2222 
L 1259 2222 
L 1259 531 
L 3634 531 
L 3634 0 
L 628 0 
L 628 4666 
z
" id="DejaVuSans-45" transform="scale(0.015625)"/>
      <path d="M 628 4666 
L 3309 4666 
L 3309 4134 
L 1259 4134 
L 1259 2759 
L 3109 2759 
L 3109 2228 
L 1259 2228 
L 1259 0 
L 628 0 
L 628 4666 
z
" id="DejaVuSans-46" transform="scale(0.015625)"/>
     </defs>
     <use xlink:href="#DejaVuSans-43"/>
     <use x="69.824219" xlink:href="#DejaVuSans-6f"/>
     <use x="131.005859" xlink:href="#DejaVuSans-65"/>
     <use x="192.529297" xlink:href="#DejaVuSans-66"/>
     <use x="227.734375" xlink:href="#DejaVuSans-66"/>
     <use x="262.939453" xlink:href="#DejaVuSans-69"/>
     <use x="290.722656" xlink:href="#DejaVuSans-63"/>
     <use x="345.703125" xlink:href="#DejaVuSans-69"/>
     <use x="373.486328" xlink:href="#DejaVuSans-65"/>
     <use x="435.009766" xlink:href="#DejaVuSans-6e"/>
     <use x="498.388672" xlink:href="#DejaVuSans-74"/>
     <use x="537.597656" xlink:href="#DejaVuSans-20"/>
     <use x="569.384766" xlink:href="#DejaVuSans-49"/>
     <use x="598.876953" xlink:href="#DejaVuSans-6e"/>
     <use x="662.255859" xlink:href="#DejaVuSans-63"/>
     <use x="717.236328" xlink:href="#DejaVuSans-72"/>
     <use x="756.099609" xlink:href="#DejaVuSans-65"/>
     <use x="817.623047" xlink:href="#DejaVuSans-61"/>
     <use x="878.902344" xlink:href="#DejaVuSans-73"/>
     <use x="931.001953" xlink:href="#DejaVuSans-65"/>
     <use x="992.525391" xlink:href="#DejaVuSans-20"/>
     <use x="1024.3125" xlink:href="#DejaVuSans-69"/>
     <use x="1052.095703" xlink:href="#DejaVuSans-6e"/>
     <use x="1115.474609" xlink:href="#DejaVuSans-20"/>
     <use x="1147.261719" xlink:href="#DejaVuSans-4c"/>
     <use x="1201.224609" xlink:href="#DejaVuSans-6f"/>
     <use x="1262.40625" xlink:href="#DejaVuSans-67"/>
     <use x="1325.882812" xlink:href="#DejaVuSans-20"/>
     <use x="1357.669922" xlink:href="#DejaVuSans-4f"/>
     <use x="1436.380859" xlink:href="#DejaVuSans-64"/>
     <use x="1499.857422" xlink:href="#DejaVuSans-64"/>
     <use x="1563.333984" xlink:href="#DejaVuSans-73"/>
     <use x="1615.433594" xlink:href="#DejaVuSans-20"/>
     <use x="1647.220703" xlink:href="#DejaVuSans-66"/>
     <use x="1682.425781" xlink:href="#DejaVuSans-6f"/>
     <use x="1743.607422" xlink:href="#DejaVuSans-72"/>
     <use x="1784.720703" xlink:href="#DejaVuSans-20"/>
     <use x="1816.507812" xlink:href="#DejaVuSans-45"/>
     <use x="1879.691406" xlink:href="#DejaVuSans-61"/>
     <use x="1940.970703" xlink:href="#DejaVuSans-63"/>
     <use x="1995.951172" xlink:href="#DejaVuSans-68"/>
     <use x="2059.330078" xlink:href="#DejaVuSans-20"/>
     <use x="2091.117188" xlink:href="#DejaVuSans-46"/>
     <use x="2143.136719" xlink:href="#DejaVuSans-65"/>
     <use x="2204.660156" xlink:href="#DejaVuSans-61"/>
     <use x="2265.939453" xlink:href="#DejaVuSans-74"/>
     <use x="2305.148438" xlink:href="#DejaVuSans-75"/>
     <use x="2368.527344" xlink:href="#DejaVuSans-72"/>
     <use x="2407.390625" xlink:href="#DejaVuSans-65"/>
    </g>
   </g>
  </g>
 </g>
 <defs>
  <clipPath id="pec0ce7d13f">
   <rect height="217.44" width="334.8" x="52.160938" y="22.318125"/>
  </clipPath>
 </defs>
</svg>
